{"accessors" : [{"bufferView" : 0, "byteOffset" : 0, "componentType" : 5123, "count" : 20352, "type" : "SCALAR", "max" : [17767], "min" : [0]}, {"bufferView" : 1, "byteOffset" : 0, "componentType" : 5126, "count" : 17768, "type" : "VEC3", "max" : [261.861877441406, 104.374534606934, 101.599998474121], "min" : [0, 0.0650660023093224, 0]}, {"bufferView" : 1, "byteOffset" : 12, "componentType" : 5126, "count" : 17768, "type" : "VEC3", "max" : [0.996588826179504, 1.00000441074371, 1.00000441074371], "min" : [-0.996588826179504, -1.00000441074371, -1.00000441074371]}], "asset" : {"generator" : "Aspose.3D 20.2.1", "version" : "2.0"}, "buffers" : [{"uri" : "buffer.bin", "byteLength" : 467144}], "bufferViews" : [{"buffer" : 0, "byteOffset" : 0, "byteLength" : 40704, "target" : 34963}, {"buffer" : 0, "byteOffset" : 40708, "byteLength" : 426432, "byteStride" : 24, "target" : 34962}], "materials" : [{"pbrMetallicRoughness" : {"baseColorFactor" : [1, 1, 1, 1], "metallicFactor" : 0, "roughnessFactor" : 1}, "emissiveFactor" : [0, 0, 0], "alphaMode" : "OPAQUE", "doubleSided" : false}], "meshes" : [{"primitives" : [{"attributes" : {"POSITION" : 1, "NORMAL" : 2}, "indices" : 0, "material" : 0, "mode" : 4}]}], "nodes" : [{"matrix" : [0.001, 0, 0, 0, 0, 0.001, 0, 0, 0, 0, 0.001, 0, 0, 0, 0, 1], "mesh" : 0, "name" : "Car Model Straight.STL"}, {"children" : [0], "name" : "Group"}], "scene" : 0, "scenes" : [{"nodes" : [1]}]}